<svg xmlns="http://www.w3.org/2000/svg" width="123" height="75.541" viewBox="0 0 123 75.541"><g transform="translate(-236 -570.229)"><g transform="translate(236 570.229)"><path d="M83.322,126.3v18.88H15.8V176.69H83.322v18.88l49.532-34.635Z" transform="translate(-12.812 -123.168)" fill="#674b14"/><path d="M46.821,191.862a2.017,2.017,0,0,0,1.248-.433L95,156.36a2.958,2.958,0,0,0,0-4.543l-46.952-35.07a2,2,0,0,0-2.357-.081,2.821,2.821,0,0,0-1.2,2.379v16.386H8.211a2.737,2.737,0,0,0,0,5.408H46.821a2.538,2.538,0,0,0,2.311-2.7V123.967l40.344,30.121L49.132,184.21V170.042a2.538,2.538,0,0,0-2.311-2.7H8.234a2.737,2.737,0,0,0,0,5.408H44.511v16.413a2.821,2.821,0,0,0,1.2,2.379A2.323,2.323,0,0,0,46.821,191.862Z" transform="translate(26.939 -116.321)" fill="#674b14"/><path d="M437.988,230.316h15.239a3.143,3.143,0,0,0,0-6.278H440.976V193.278h12.251a3.143,3.143,0,0,0,0-6.278H437.988A3.075,3.075,0,0,0,435,190.139v37.039A3.075,3.075,0,0,0,437.988,230.316Z" transform="translate(-435 -170.89)" fill="#674b14"/><ellipse cx="2.988" cy="3.139" rx="2.988" ry="3.139" transform="translate(19.695 18.874)" fill="#674b14"/><ellipse cx="2.988" cy="3.139" rx="2.988" ry="3.139" transform="translate(19.695 50.384)" fill="#674b14"/></g><text transform="translate(297 612)" fill="#f5eeee" font-size="20" font-family="Gabriola"><tspan x="-37.756" y="0">back to map</tspan></text></g></svg>