<svg xmlns="http://www.w3.org/2000/svg" width="199.827" height="71.925" viewBox="0 0 199.827 71.925"><g transform="translate(1.664)" fill="#fff"><path d="M 99.30422973632813 71.42454528808594 C 92.77055358886719 71.42454528808594 85.89018249511719 70.78781890869141 78.26995849609375 69.47799682617188 C 71.53462982177734 68.32026672363281 65.09220886230469 66.79964447021484 58.86188125610352 65.32911682128906 C 48.21825790405273 62.81686782836914 38.1649055480957 60.4439697265625 28.7708568572998 60.4439697265625 C 17.52741622924805 60.4439697265625 8.518750190734863 63.87277221679688 0.4651367366313934 71.225830078125 C -0.120442733168602 70.49579620361328 -0.5539681315422058 69.21829223632813 -0.826168954372406 67.41746520996094 C -1.111143946647644 65.53227233886719 -1.216194033622742 63.03981781005859 -1.138443946838379 60.00929260253906 C -0.9948439598083496 54.41109466552734 -0.2535189688205719 47.83996963500977 0.2877560257911682 43.04194259643555 C 0.6549060344696045 39.78751754760742 0.9449059963226318 37.21696853637695 0.9449059963226318 35.9622688293457 C 0.9449059963226318 33.60919570922852 1.599056005477905 31.25319290161133 2.889156103134155 28.95976829528809 C 4.159406185150146 26.70161819458008 6.060555934906006 24.47549438476563 8.539780616760254 22.34321975708008 C 10.99013137817383 20.23579406738281 14.02683067321777 18.20111846923828 17.56558036804199 16.29566955566406 C 21.08090591430664 14.40281867980957 25.12013053894043 12.62211894989014 29.5710563659668 11.0029935836792 C 38.61943054199219 7.711443901062012 49.15993118286133 5.126594066619873 60.89975738525391 3.320268869400024 C 73.06255340576172 1.448868870735168 85.98368072509766 0.4999938309192657 99.30422973632813 0.4999938309192657 C 112.6247787475586 0.4999938309192657 125.5459060668945 1.448868870735168 137.7087097167969 3.320268869400024 C 149.4485015869141 5.126594066619873 159.9889984130859 7.711443901062012 169.0373992919922 11.0029935836792 C 173.4883270263672 12.62211894989014 177.5275573730469 14.40281867980957 181.0428771972656 16.29566955566406 C 184.5816345214844 18.20111846923828 187.6183319091797 20.23579406738281 190.0686492919922 22.34321975708008 C 192.5479125976563 24.47549438476563 194.4490509033203 26.70161819458008 195.7192993164063 28.95976829528809 C 197.0093994140625 31.25319290161133 197.6635589599609 33.60919570922852 197.6635589599609 35.9622688293457 C 197.6635589599609 38.31534194946289 197.0093994140625 40.67134475708008 195.7192993164063 42.96479415893555 C 194.4490509033203 45.22291946411133 192.5479125976563 47.44904327392578 190.0686492919922 49.58131790161133 C 187.6183319091797 51.68874359130859 184.5816345214844 53.72344207763672 181.0428771972656 55.6288948059082 C 177.5275573730469 57.5217170715332 173.4883270263672 59.30244445800781 169.0373992919922 60.92156982421875 C 159.9889984130859 64.21311950683594 149.4485015869141 66.79794311523438 137.7087097167969 68.60427093505859 C 125.5459060668945 70.47566986083984 112.6247787475586 71.42454528808594 99.30422973632813 71.42454528808594 Z" stroke="none"/><path d="M 99.30423736572266 1.000007629394531 C 86.00905609130859 1.000007629394531 73.11350250244141 1.946929931640625 60.97578430175781 3.814476013183594 C 49.26823425292969 5.615821838378906 38.75968933105469 8.192478179931641 29.74197387695313 11.47284698486328 C 25.31370544433594 13.08374404907227 21.29670715332031 14.8544807434082 17.8026123046875 16.73590087890625 C 14.29560852050781 18.624267578125 11.288818359375 20.63837432861328 8.865814208984375 22.72229385375977 C 3.941665649414063 26.95734786987305 1.444900512695313 31.41189956665039 1.444900512695313 35.9622688293457 C 1.444900512695313 37.24508285522461 1.15350341796875 39.82795333862305 0.78460693359375 43.09797668457031 C 0.2443389892578125 47.88690185546875 -0.495574951171875 54.44558715820313 -0.6386260986328125 60.02210998535156 C -0.8031768798828125 66.43672943115234 -0.1034088134765625 69.24055480957031 0.562896728515625 70.46404266357422 C 8.603164672851563 63.29228210449219 17.59675598144531 59.94397735595703 28.77084350585938 59.94397735595703 C 38.22309875488281 59.94397735595703 48.30397033691406 62.32337188720703 58.97673034667969 64.84247589111328 C 65.19970703125 66.31127166748047 71.63452911376953 67.83008575439453 78.35462951660156 68.98521423339844 C 85.94660949707031 70.2901611328125 92.79926300048828 70.92453002929688 99.30423736572266 70.92453002929688 C 112.5993957519531 70.92453002929688 125.4949493408203 69.97760772705078 137.6326599121094 68.11006164550781 C 149.3402099609375 66.3087158203125 159.8487854003906 63.73205947875977 168.8664703369141 60.45169067382813 C 173.2947692871094 58.84079742431641 177.3117370605469 57.0700569152832 180.8058471679688 55.18863677978516 C 184.3128356933594 53.30027008056641 187.3196258544922 51.28616333007813 189.7426300048828 49.20223999023438 C 194.6667938232422 44.96718978881836 197.1635589599609 40.51263809204102 197.1635589599609 35.9622688293457 C 197.1635589599609 31.41189956665039 194.6667938232422 26.95734786987305 189.7426300048828 22.72229385375977 C 187.3196258544922 20.63837432861328 184.3128356933594 18.624267578125 180.8058471679688 16.73590087890625 C 177.3117370605469 14.8544807434082 173.2947692871094 13.08374404907227 168.8664703369141 11.47284698486328 C 159.8487854003906 8.192478179931641 149.3402099609375 5.615821838378906 137.6326599121094 3.814476013183594 C 125.4949493408203 1.946929931640625 112.5993957519531 1.000007629394531 99.30423736572266 1.000007629394531 M 99.30423736572266 7.62939453125e-06 C 153.9027099609375 7.62939453125e-06 198.1635589599609 16.10084915161133 198.1635589599609 35.9622688293457 C 198.1635589599609 55.82369232177734 153.9027099609375 71.92453002929688 99.30423736572266 71.92453002929688 C 72.00666046142578 71.92453002929688 48.96186828613281 60.9439697265625 28.77084350585938 60.9439697265625 C 18.67347717285156 60.9439697265625 9.2926025390625 63.68810653686523 0.4449005126953125 71.92453002929688 C -4.299346923828125 67.84634399414063 0.4449005126953125 40.9276123046875 0.4449005126953125 35.9622688293457 C 0.4449005126953125 16.10084915161133 44.70573425292969 7.62939453125e-06 99.30423736572266 7.62939453125e-06 Z" stroke="none" fill="#707070"/></g><text transform="translate(100.769 32.166)" font-size="20" font-family="Gabriola"><tspan x="-72.942" y="0">You are welcome Albert!</tspan><tspan x="-40.256" y="15">See you later!</tspan></text></svg>