<svg xmlns="http://www.w3.org/2000/svg" width="124.905" height="121.376" viewBox="0 0 124.905 121.376"><g transform="translate(0.693 0.377)"><path d="M552.345,296.122c-.139-2.4,2.135-8.166,2.135-14.518a27.946,27.946,0,0,0-2.135-10.888L550,264.738s-3.042-4-10.675-5.337-12.615-1.067-20.568,0-11.244,4.27-11.244,4.27a24.144,24.144,0,0,0-4.911,4.7c-1.495,2.242-1.6,1.551-2.135,4.38a27.35,27.35,0,0,0,0,6.936,9.414,9.414,0,0,0,1.068,4.27c1.121,2.028.534,2.242,3.416,3.843s7.472,1.495,8.113,2.562-3.843.587-5.551,1.708-3.042.152-2.562,1.38,4.484,3.531,4.484,3.531l1.281,2.562-3.2,9.394L507,316.711a22.973,22.973,0,0,0,.506,7.327,21.485,21.485,0,0,0,3.2,6.443,16.208,16.208,0,0,0,3.366,4.674,39.986,39.986,0,0,0,6.064,4.548L530,344.377a21.325,21.325,0,0,0,6.443,1.769,51.293,51.293,0,0,0,8.717,0,9.817,9.817,0,0,1,6.064.632c2.971,1.425,5.821,5.068,5.821,5.068s5.231,14.838,7.686,20.709,2.411,2.775,2.411,2.775l2.073,3.408,4.056-3.408,3.416,1.708,1.446-4.483h5.6l-11.956-23.271v-4.907s2.829-10.091,3.2-17.3-1.708-11.529-1.708-11.529l-4.056-6.619a26.474,26.474,0,0,0-13.45-9.394S552.484,298.519,552.345,296.122Z" transform="translate(-462.54 -258.497)" fill="#b4afaf" stroke="#707070" stroke-width="1"/><path d="M620.9,290.732s-17.977,3.839-25.462,3.239-5.3-.291-9.844-1.807a22.324,22.324,0,0,1-8.348-4.257,16.215,16.215,0,0,1-5.05-6.151s.222-.054.922-.219c.382-.09,1.055-.245,2.213-.5,1.434-.314,3.92-.824,6.238-1.181a77.518,77.518,0,0,1,8.165-.805l20.15-1.127-26.763,1.932-10,2.306,7.51,1.089,8.642,2.45,7.69,2.79,6.4,1.021,6.528.753h11.533" transform="translate(-572.196 -257.316)" fill="#cba719" stroke="#707070" stroke-width="1"/><path d="M498.151,306.983l.632,8.211,2.4,8.211.1.154,4.576,7.174a28.143,28.143,0,0,0,7.959,6.064,59.09,59.09,0,0,0,11.875,4.043s7.264.821,12.759,1.516,5.843.632,9.222,1.263a24.215,24.215,0,0,1,4.8,1.263l7.075,2.021s6.127,3.979,4.674,0-10.233-16.928-10.233-16.928l-3.032-7.832-2.527-6.948a16.246,16.246,0,0,0-4.043-5.938,38.909,38.909,0,0,0-7.832-5.18l-5.811-2.906-.161-.041-10.324-2.612a24.051,24.051,0,0,0-6.443-.884,47.815,47.815,0,0,0-7.959.884s-4.358.853-5.811,2.653S498.151,306.983,498.151,306.983Z" transform="translate(-440.734 -257.551)" fill="#cba719" stroke="#707070" stroke-width="1"/><path d="M573.42,282.044l8.108,1.438s3.148.863,4.945,1.38,2.243.69,2.243.69,3.263,1.121,5.463,1.9,3.623,1.208,3.623,1.208l3.68.633,3.738.518,3.853.518,11.253-.518" transform="translate(-572.327 -257.316)" fill="#fff" stroke="#707070" stroke-width="1"/><path d="M567.967,348.585l2.162,5.356L559.605,352.1l-5.911.765-4.613,2.907-2.883,4.9-4.757-4.285,4.757-6.427-2.018-1.377-9.8-2.755v-6.886l9.226,5.05,5.478,3.06,6.631,1.53Z" transform="translate(-483.325 -262.168)" fill="#e8cccc" stroke="#707070" stroke-width="1"/><path d="M566.828,284.117l1.624-.15,2.2-.2,8.634-.8,8.211-2.628a9.223,9.223,0,0,1,4.6,0c2.422.657,9.386,2.213,9.386,2.213l5.887,2.07,3.461,2.653s1.5,3.133.632,5.382-1.465,2.012-4.093,3.613-3.613,1.026-7.883,2.135-4.434,1.724-9.2,2.3-4.753.867-9.854,0-10.9-3.584-10.879-4.434a31.522,31.522,0,0,1-1.6-3.613l-.036-.134a48.2,48.2,0,0,1-1.088-6.6l.224-3.371" transform="translate(-529.14 -267.316)" fill="#cba719" stroke="#707070" stroke-width="1"/><g transform="translate(50.416 15.684)" fill="#af3850" stroke="#707070" stroke-width="1"><ellipse cx="7.5" cy="8" rx="7.5" ry="8" stroke="none"/><ellipse cx="7.5" cy="8" rx="7" ry="7.5" fill="none"/></g><g transform="translate(52.416 18.684)" fill="#060000" stroke="#707070" stroke-width="1"><ellipse cx="4.5" cy="5" rx="4.5" ry="5" stroke="none"/><ellipse cx="4.5" cy="5" rx="4" ry="4.5" fill="none"/></g><g transform="translate(55.416 20.684)" fill="#fff" stroke="#160303" stroke-width="1"><ellipse cx="2" cy="2.5" rx="2" ry="2.5" stroke="none"/><ellipse cx="2" cy="2.5" rx="1.5" ry="2" fill="none"/></g><g transform="translate(68.928 47.121)"><path d="M579.853,314.436c2.4,5.053-2.779,2.527-2.779,2.527s.821,1.958,0,2.906-3.285.884-3.285.884,1.358,1.895.758,2.906-3.158,1.137-3.158,1.137.853,2.653,0,3.537-3.411,0-3.411,0,1.042,3.948,0,4.927-4.169-1.011-4.169-1.011" transform="translate(-563.809 -314.436)" fill="none" stroke="#707070" stroke-width="1"/></g><g transform="translate(76.928 53.121)"><path d="M579.853,314.436c2.4,5.053-2.779,2.527-2.779,2.527s.821,1.958,0,2.906-3.285.884-3.285.884,1.358,1.895.758,2.906-3.158,1.137-3.158,1.137.853,2.653,0,3.537-3.411,0-3.411,0,1.042,3.948,0,4.927-4.169-1.011-4.169-1.011" transform="translate(-563.809 -314.436)" fill="none" stroke="#707070" stroke-width="1"/></g><g transform="translate(85.607 60.121)"><path d="M579.853,314.436c2.4,5.053-2.779,2.527-2.779,2.527s.821,1.958,0,2.906-3.285.884-3.285.884,1.358,1.895.758,2.906-3.158,1.137-3.158,1.137.853,2.653,0,3.537-3.411,0-3.411,0,1.042,3.948,0,4.927-4.169-1.011-4.169-1.011" transform="translate(-563.809 -314.436)" fill="none" stroke="#707070" stroke-width="1"/></g><g transform="translate(98.804 92.505)"><path d="M571.968,314.436c1.221,2.57-1.413,1.285-1.413,1.285s.418,1,0,1.477-1.67.45-1.67.45.691.964.385,1.478-1.606.578-1.606.578.434,1.349,0,1.8-1.734,0-1.734,0,.53,2.007,0,2.505-2.12-.514-2.12-.514" transform="translate(-563.809 -314.436)" fill="none" stroke="#707070" stroke-width="1"/></g><g transform="translate(102.286 98.505)"><path d="M571.968,314.436c1.221,2.57-1.413,1.285-1.413,1.285s.418,1,0,1.477-1.67.45-1.67.45.691.964.385,1.478-1.606.578-1.606.578.434,1.349,0,1.8-1.734,0-1.734,0,.53,2.007,0,2.505-2.12-.514-2.12-.514" transform="translate(-563.809 -314.436)" fill="none" stroke="#707070" stroke-width="1"/></g><g transform="translate(105.286 104.505)"><path d="M571.968,314.436c1.221,2.57-1.413,1.285-1.413,1.285s.418,1,0,1.477-1.67.45-1.67.45.691.964.385,1.478-1.606.578-1.606.578.434,1.349,0,1.8-1.734,0-1.734,0,.53,2.007,0,2.505-2.12-.514-2.12-.514" transform="translate(-563.809 -314.436)" fill="none" stroke="#707070" stroke-width="1"/></g><path d="M4.3,24.728l7.2-1.882,26.125-1.3,1.839,6.282,3.984,3.6L45.054,32.5H36.934L24.6,31.044l-7.355-2.681Z" transform="translate(0 0)" fill="#fff" stroke="#707070" stroke-width="1"/></g></svg>