<svg viewBox="0 0 195 176" xmlns="http://www.w3.org/2000/svg">
<g fill="#2d3047">
<path d="m76.449 143.74c-3.0519 6.1035e-5 -6.0231-1.4059-7.9485-3.761-1.8419-2.253-2.5199-5.151-1.9091-8.1604l0.8172-4.0265c0.65375-3.2211-0.16134-6.5243-2.2362-9.0627-2.087-2.5531-5.1543-4.0174-8.4155-4.0174-0.60203 0-1.213 0.050552-1.816 0.15024l-3.4969 0.57816c-0.60928 0.10073-1.2181 0.15185-1.8094 0.15193h-0.0013695c-2.249 3.0518e-5 -4.3344-0.7382-6.031-2.1349-1.5625-1.2863-2.7404-3.1041-3.3168-5.1186-0.57932-2.0247-0.53685-4.0981 0.1228-5.9959 0.7196-2.0703 2.1654-3.8285 4.1809-5.0843 3.2178-2.005 5.1388-5.4654 5.1388-9.2567-1.9073e-5 -3.7913-1.9211-7.2517-5.1388-9.2567-2.0153-1.2557-3.4608-3.0135-4.1803-5.0835-0.65957-1.8975-0.7021-3.9706-0.12297-5.9951 0.57628-2.0146 1.7542-3.8327 3.3166-5.1193 1.6969-1.3973 3.7828-2.1359 6.0322-2.1359 0.59083 0 1.1996 0.051117 1.8093 0.15193l3.4969 0.57817c0.60295 0.099686 1.2139 0.15023 1.816 0.15023 3.2615 0 6.3289-1.4642 8.4158-4.0172 2.0748-2.5382 2.8898-5.8415 2.236-9.0629l-0.81721-4.0265c-0.61063-3.0086 0.067261-5.9062 1.9088-8.1591 1.9257-2.3558 4.8978-3.7623 7.9502-3.7623 3.0376 0 5.7787 1.3965 7.7182 3.9323l4.668 6.1029c2.0807 2.7203 5.2382 4.2804 8.663 4.2804 3.4248 0 6.5823-1.5602 8.663-4.2804l4.668-6.1029c1.9396-2.5358 4.6806-3.9323 7.7182-3.9323 3.0528 0 6.0249 1.4064 7.9505 3.762 1.8415 2.2527 2.5193 5.1505 1.9086 8.1594l-0.81719 4.0265c-0.65375 3.2211 0.16133 6.5243 2.2362 9.0627 2.087 2.5531 5.1543 4.0174 8.4155 4.0174 0.60205 0 1.213-0.050533 1.816-0.15023l3.497-0.57817c0.60977-0.10081 1.2185-0.15193 1.8094-0.15193 2.2497 0 4.3358 0.73855 6.0328 2.1358 1.5625 1.2865 2.7404 3.1045 3.3167 5.119 0.57912 2.0245 0.53651 4.0976-0.12317 5.9952-0.71962 2.07-2.1653 3.8279-4.1808 5.0837-3.2178 2.005-5.1388 5.4654-5.1388 9.2567 0 3.7913 1.9211 7.2517 5.1388 9.2567 2.0153 1.2557 3.4608 3.0135 4.1803 5.0833 0.65961 1.8974 0.70218 3.9704 0.12311 5.9949-0.57625 2.0146-1.7541 3.8327-3.3166 5.1194-1.6969 1.3974-3.7829 2.136-6.0323 2.1361-0.59067 2.2888e-5 -1.1994-0.051094-1.8093-0.15193l-3.497-0.57816c-0.60295-0.099686-1.2139-0.15024-1.816-0.15024-3.2614 0-6.3289 1.4642-8.4157 4.0172-2.0748 2.5382-2.8898 5.8415-2.236 9.0629l0.81719 4.0265c0.61063 3.0086-0.06723 5.9061-1.9087 8.1589-1.9257 2.3559-4.8978 3.7624-7.9503 3.7625-3.0375 9.1553e-5 -5.7786-1.3965-7.7182-3.9323l-4.668-6.1029c-2.0807-2.7202-5.2382-4.2804-8.663-4.2804-3.4248 0-6.5823 1.5602-8.663 4.2804l-4.668 6.1029c-1.9393 2.5354-4.6804 3.9319-7.7183 3.9323h-0.0013046z"/>
<path d="m76.451 32.762c-2.9041 6.1035e-5 -5.7315 1.338-7.5632 3.5789-0.8363 1.0231-1.4223 2.1805-1.7417 3.44-0.34552 1.3626-0.36711 2.8103-0.064163 4.303l0.81721 4.0265c0.68378 3.369-0.16872 6.8239-2.3389 9.4788-2.1822 2.6696-5.3907 4.2007-8.8029 4.2007-0.62927 0-1.2677-0.052803-1.8975-0.15694l-3.497-0.57816c-0.58302-0.09639-1.1643-0.14526-1.7278-0.14523-2.1321 7.6294e-5 -4.1082 0.69931-5.7145 2.0221-1.485 1.2229-2.6051 2.9528-3.1537 4.871-0.55058 1.9249-0.51093 3.8936 0.11465 5.6932 0.68158 1.9607 2.0552 3.6285 3.9724 4.8231 3.3653 2.0969 5.3744 5.716 5.3744 9.681 0 3.9651-2.0091 7.5842-5.3744 9.681-1.9174 1.1947-3.2912 2.8627-3.9729 4.8236-0.62569 1.7998-0.66534 3.7685-0.11472 5.6935 0.54866 1.9181 1.6687 3.6478 3.1538 4.8706 1.6064 1.3226 3.5826 2.0218 5.7149 2.0218 0.56364 0 1.145-0.048874 1.7278-0.14523l3.4969-0.57817c0.62978-0.10413 1.2682-0.15694 1.8975-0.15694 3.4118 0 6.6203 1.5312 8.8026 4.201 2.1703 2.655 3.0228 6.1098 2.3391 9.4786l-0.81721 4.0266c-0.30298 1.4929-0.28143 2.9408 0.064064 4.3034 0.31937 1.2596 0.90533 2.417 1.7416 3.4401 1.8316 2.2407 4.659 3.5785 7.5634 3.5785 2.8783 0 5.4783-1.3268 7.3211-3.7361l4.668-6.1029c2.1761-2.845 5.4783-4.4766 9.0601-4.4766 3.5818 0 6.884 1.6317 9.0601 4.4766l4.668 6.1029c1.8428 2.4093 4.4428 3.7361 7.3211 3.7361 2.904 0 5.7313-1.3378 7.5631-3.5788 0.83633-1.0231 1.4224-2.1805 1.7418-3.4401 0.34553-1.3626 0.36713-2.8104 0.064186-4.3031l-0.8172-4.0265c-0.68378-3.369 0.16872-6.8239 2.3389-9.4788 2.1822-2.6696 5.3907-4.2007 8.8029-4.2007 0.62927 0 1.2677 0.052803 1.8975 0.15694l3.497 0.57817c0.58295 0.096359 1.1643 0.14523 1.7278 0.14523 2.132 0 4.108-0.69916 5.7143-2.0219 1.485-1.2229 2.605-2.9527 3.1537-4.8708 0.55066-1.925 0.51103-3.8938-0.11453-5.6935-0.68158-1.9608-2.0553-3.6287-3.9725-4.8233-3.3653-2.0969-5.3744-5.716-5.3744-9.681 0-3.9651 2.0091-7.5842 5.3744-9.6811 1.9175-1.1948 3.2914-2.8629 3.973-4.8241 0.62567-1.8 0.66522-3.7691 0.1144-5.6942-0.5488-1.918-1.6689-3.6475-3.1539-4.8701-1.606-1.3222-3.5815-2.021-5.7132-2.021h-0.001297c-0.56416 7.6294e-5 -1.1455 0.04895-1.7279 0.14523l-3.497 0.57816c-0.62976 0.10413-1.2682 0.15694-1.8976 0.15694-3.4118 0-6.6203-1.5312-8.8026-4.2009-2.1703-2.655-3.0228-6.1098-2.3391-9.4786l0.8172-4.0265c0.30298-1.4929 0.28143-2.9408-0.064072-4.3034-0.31937-1.2596-0.90533-2.417-1.7416-3.4401-1.8316-2.2407-4.659-3.5785-7.5633-3.5785-2.8783 0-5.4783 1.3268-7.3211 3.7361l-4.668 6.1029c-2.1761 2.8449-5.4784 4.4766-9.0601 4.4766-3.5818 0-6.884-1.6317-9.0601-4.4766l-4.668-6.1029c-1.8429-2.4093-4.4429-3.7362-7.3211-3.7361h-1.5259e-5m-2.2888e-5 -1c2.9341-7.6294e-5 5.9144 1.251 8.1154 4.1285l4.668 6.1029c2.0826 2.7228 5.1742 4.0842 8.2658 4.0842 3.0916 0 6.1832-1.3614 8.2658-4.0842l4.668-6.1029c2.2006-2.877 5.1818-4.1286 8.1154-4.1286 6.0102 0 11.825 5.2482 10.349 12.521l-0.8172 4.0265c-1.3317 6.5613 3.7519 12.481 10.162 12.481 0.56908 0 1.148-0.046577 1.7344-0.14354l3.497-0.57816c0.64914-0.10733 1.2811-0.15855 1.8909-0.15863 9.9413-0.0013504 14.413 13.586 5.3099 19.258l-3.0518e-5 2.2888e-5c-6.5376 4.0735-6.5376 13.591 0 17.665h3.0518e-5c9.1023 5.6716 4.63 19.258-5.3099 19.258-0.61046 0-1.2411-0.051186-1.8909-0.15863l-3.497-0.57816c-0.586-0.096893-1.1657-0.14354-1.7344-0.14354-6.4105 0-11.493 5.9189-10.162 12.481l0.8172 4.0265c1.4759 7.2719-4.3394 12.521-10.349 12.521-2.9341 0-5.9144-1.251-8.1154-4.1286l-4.668-6.1029c-2.0826-2.7228-5.1742-4.0842-8.2658-4.0842-3.0916 0-6.1832 1.3614-8.2658 4.0842l-4.668 6.1029c-2.2006 2.877-5.1818 4.1286-8.1154 4.1286-6.0102 0-11.825-5.2482-10.349-12.521l0.81721-4.0266c1.3317-6.5613-3.7519-12.481-10.162-12.481-0.56909 0-1.1479 0.046577-1.7344 0.14354l-3.4969 0.57816c-0.64915 0.10732-1.2811 0.15863-1.8909 0.15863-9.9413 0-14.413-13.586-5.3099-19.258l-1.5259e-5 1.5259e-5c6.5376-4.0735 6.5376-13.591 0-17.665-9.1023-5.6716-4.6301-19.258 5.3099-19.258 0.61046-3.0518e-5 1.2411 0.051193 1.8909 0.15863l3.4969 0.57816c0.586 0.096886 1.1657 0.14354 1.7344 0.14354 6.4105 0 11.494-5.9189 10.162-12.481l-0.81721-4.0265c-1.4759-7.272 4.3394-12.521 10.349-12.521z" fill="#707070"/>
</g>
<g transform="translate(62.733 51.881)">
<path transform="translate(1035.2 .472)" d="m-970.34 48.133-26.147 3.7-13.177-1.556-12.243-2.626-6.433-4.085 56.859-10.214z" fill="#d68f15"/>
<g stroke="#707070">
<path transform="translate(-2457.3 -1132.3)" d="m2464.3 1177-3.338-3.139-1.386-4.835v-4.583l1.386-3.956 3.338-3.7 3.4-2.7 5.292-10.36 4.2-6.163 7.559-4.032 6.9-1.251h6.411l5.628 0.929 3.914 1.635 5.144 4.161 4.137 6.613 1.3 3.938 3.019 4.31 4.068 3.674 2.583 4.081 1.386 4.332v4.835l-1.386 4.772-2.583 3.014-2.834 2.7-1.234-14.753" fill="#d68f15"/>
<g transform="translate(21.307 7.128)">
<g transform="translate(0)" fill="#fff">
<ellipse cx="3.718" cy="8.801" rx="3.718" ry="8.801" stroke="none"/>
<ellipse cx="3.718" cy="8.801" rx="3.218" ry="8.301" fill="none"/>
</g>
<g transform="translate(2.788 4.632)">
<ellipse cx="1.394" cy="5.095" rx="1.394" ry="5.095" stroke="none"/>
<ellipse cx="1.394" cy="5.095" rx=".894" ry="4.595" fill="none"/>
</g>
</g>
<g transform="translate(45.474 8.981)">
<g fill="#fff">
<ellipse cx="3.718" cy="8.801" rx="3.718" ry="8.801" stroke="none"/>
<ellipse cx="3.718" cy="8.801" rx="3.218" ry="8.301" fill="none"/>
</g>
<g transform="translate(2.788 4.632)" fill="#060000" >
<ellipse cx="1.394" cy="5.095" rx="1.394" ry="5.095" stroke="none"/>
<ellipse cx="1.394" cy="5.095" rx=".894" ry="4.595" fill="none"/>
</g>
</g>
<path transform="translate(-2454.3 -1135.8)" d="M2500.337,1183.594l-.958,9.231-.639,3.82-4.365,4.563-8.73,2.228h-16.714l-4.791-2.228-5.323-2.122-4.471-7.215,1.171-4.669,9.475-8.276.639-4.563,1.383-3.183,6.069-5.2,7.132-5.305,5.43-1.592h4.471l13.733,8.276,2.661,2.016.745,4.032v2.122l-1.278,2.759-1.6,1.91-1.81,2.229v1.167l-1.49-2.228Z" fill="#674b14" />
<g transform="translate(39.697 32.97)" fill="#fff">
<ellipse cx="1.859" cy="1.853" rx="1.859" ry="1.853" stroke="none"/>
<ellipse cx="1.859" cy="1.853" rx="1.359" ry="1.353" fill="none"/>
</g>
<g transform="translate(28.743 28.084)" fill="#fff">
<ellipse cx="1.859" cy="1.853" rx="1.859" ry="1.853" stroke="none"/>
<ellipse cx="1.859" cy="1.853" rx="1.359" ry="1.353" fill="none"/>
</g>
</g>
</g>
</svg>
