<svg xmlns="http://www.w3.org/2000/svg" width="258.846" height="130.267" viewBox="0 0 258.846 130.267"><g transform="translate(-30.654 -38.733)"><g transform="translate(46 38.733)" fill="#fff"><path d="M 125.362419128418 129.7665405273438 C 117.5819854736328 129.7665405273438 109.3630218505859 128.6194763183594 100.2358856201172 126.2597427368164 C 92.16195678710938 124.1723480224609 84.41075134277344 121.4267120361328 76.91478729248047 118.7715148925781 C 64.00462341308594 114.1984481811523 51.81042098999023 109.8790435791016 40.41252136230469 109.8790435791016 C 26.7991886138916 109.8790435791016 15.95678424835205 116.083610534668 6.342142581939697 129.3919677734375 C 5.37620735168457 127.8124923706055 3.731064319610596 124.1001892089844 1.029120683670044 115.5480117797852 C -1.143012642860413 108.6727142333984 -3.625212669372559 99.85624694824219 -6.149079322814941 90.05171203613281 C -11.10697937011719 70.79187774658203 -14.84571266174316 53.09234619140625 -14.84571266174316 48.88104629516602 C -14.84571266174316 44.5971794128418 -13.73441219329834 40.49981307983398 -11.54271221160889 36.70271301269531 C -9.446445465087891 33.07097625732422 -6.312879085540771 29.62584495544434 -2.229045867919922 26.46294403076172 C 5.409153938293457 20.54724502563477 16.48092079162598 15.49001121520996 30.67872047424316 11.43174457550049 C 43.52728652954102 7.759111404418945 58.7437858581543 4.947877883911133 75.90555572509766 3.076144456863403 C 91.57878875732422 1.366744518280029 108.2184906005859 0.5000112056732178 125.362419128418 0.5000112056732178 C 141.2727203369141 0.5000112056732178 156.7059173583984 2.217711210250854 171.2333221435547 5.605444431304932 C 178.2128143310547 7.233044624328613 184.9439239501953 9.247311592102051 191.2396850585938 11.59231090545654 C 197.4723205566406 13.91381168365479 203.3322906494141 16.57937812805176 208.6568145751953 19.51497840881348 C 213.9764862060547 22.44787788391113 218.8048248291016 25.67411041259766 223.0077209472656 29.10404396057129 C 227.2445220947266 32.56161117553711 230.882080078125 36.25607681274414 233.8193511962891 40.08481216430664 C 236.8044891357422 43.97594451904297 239.0962524414063 48.0455436706543 240.6309814453125 52.18064498901367 C 242.202880859375 56.41574478149414 242.9998931884766 60.77364349365234 242.9998931884766 65.13327789306641 C 242.9998931884766 69.49291229248047 242.202880859375 73.85081481933594 240.6309814453125 78.08591461181641 C 239.0962524414063 82.22100830078125 236.8044891357422 86.29061126708984 233.8193511962891 90.18174743652344 C 230.882080078125 94.01047515869141 227.2445220947266 97.70494079589844 223.0077209472656 101.1625137329102 C 218.8048248291016 104.5924453735352 213.9764862060547 107.8186798095703 208.6568145751953 110.751579284668 C 203.3322906494141 113.6871795654297 197.4723205566406 116.3527450561523 191.2396850585938 118.6742477416992 C 184.9439239501953 121.0192413330078 178.2128143310547 123.0335083007813 171.2333221435547 124.6611099243164 C 156.7059173583984 128.0488433837891 141.2727203369141 129.7665405273438 125.362419128418 129.7665405273438 Z" stroke="none"/><path d="M 125.362419128418 1.000015258789063 C 108.2365188598633 1.000015258789063 91.61508178710938 1.865737915039063 75.95974731445313 3.573211669921875 C 58.8260498046875 5.441879272460938 43.63755798339844 8.247611999511719 30.81611633300781 11.9124755859375 C 16.67979431152344 15.95317840576172 5.664794921875 20.98167419433594 -1.922882080078125 26.85824584960938 C -5.95513916015625 29.98117828369141 -9.046005249023438 33.37744140625 -11.10968017578125 36.95264434814453 C -13.25694274902344 40.67277526855469 -14.34571838378906 44.68608093261719 -14.34571838378906 48.88104248046875 C -14.34571838378906 53.05624389648438 -10.61378479003906 70.70217895507813 -5.664886474609375 89.92707824707031 C -0.669342041015625 109.3330841064453 3.82464599609375 123.6574325561523 6.39251708984375 128.4748992919922 C 15.99620056152344 115.4553909301758 26.83964538574219 109.3790435791016 40.41252136230469 109.3790435791016 C 51.89634704589844 109.3790435791016 64.1298828125 113.7124099731445 77.08172607421875 118.3002090454102 C 84.56758117675781 120.9518432617188 92.30828857421875 123.6937408447266 100.3610229492188 125.7756805419922 C 109.4467544555664 128.1246795654297 117.6247863769531 129.2665405273438 125.362419128418 129.2665405273438 C 141.2345275878906 129.2665405273438 156.6295166015625 127.5532073974609 171.1197509765625 124.1741790771484 C 178.07861328125 122.5514144897461 184.7892150878906 120.5433120727539 191.0651550292969 118.2057113647461 C 197.2748565673828 115.8927459716797 203.1123199462891 113.2375106811523 208.4153900146484 110.3137130737305 C 213.7087554931641 107.3953094482422 218.5119476318359 104.1860809326172 222.6915893554688 100.775146484375 C 226.8984527587891 97.34201049804688 230.5088806152344 93.67547607421875 233.4226531982422 89.87741088867188 C 236.3773498535156 86.02593994140625 238.6448822021484 82.00018310546875 240.1622619628906 77.91194152832031 C 241.7133941650391 73.73268127441406 242.4998931884766 69.43331146240234 242.4998931884766 65.13327789306641 C 242.4998931884766 60.83324432373047 241.7133941650391 56.53387451171875 240.1622619628906 52.3546142578125 C 238.6448822021484 48.26638031005859 236.3773498535156 44.24060821533203 233.4226531982422 40.38914489746094 C 230.5088806152344 36.59107971191406 226.8984527587891 32.92454528808594 222.6915893554688 29.49140930175781 C 218.5119476318359 26.08047485351563 213.7087554931641 22.87124633789063 208.4153900146484 19.95284271240234 C 203.1123199462891 17.02904510498047 197.2748565673828 14.37380981445313 191.0651550292969 12.06084442138672 C 184.7892150878906 9.723243713378906 178.07861328125 7.715141296386719 171.1197509765625 6.092376708984375 C 156.6295166015625 2.713340759277344 141.2345275878906 1.000015258789063 125.362419128418 1.000015258789063 M 125.362419128418 1.52587890625e-05 C 190.6079254150391 1.52587890625e-05 243.4998931884766 29.16117858886719 243.4998931884766 65.13327789306641 C 243.4998931884766 101.1053771972656 190.6079254150391 130.2665405273438 125.362419128418 130.2665405273438 C 92.74165344238281 130.2665405273438 64.80575561523438 110.379035949707 40.41253662109375 110.379035949707 C 28.21369934082031 110.379035949707 16.90420532226563 115.3490905761719 6.331161499023438 130.2665405273438 C 0.6617584228515625 122.8803405761719 -15.34571838378906 57.87407684326172 -15.34571838378906 48.88104248046875 C -15.34571838378906 12.90891265869141 60.11692810058594 1.52587890625e-05 125.362419128418 1.52587890625e-05 Z" stroke="none" fill="#707070"/></g></g><text transform="translate(11.346 54.267)" font-size="25" font-family="Gabriola"><tspan x="0" y="0" xml:space="preserve">G`Day  bird! Nice to meet you!</tspan><tspan x="0" y="30" xml:space="preserve"> I am Albert and who are you?</tspan></text></svg>