<svg xmlns="http://www.w3.org/2000/svg" width="93.028" height="116.417" viewBox="0 0 93.028 116.417"><g transform="matrix(1, -0.017, 0.017, 1, -5.997, 1.69)"><path d="M2164.494-21.59,2148.843-5.764l3.349,1.174,5.8,4.047,2.719,2.186.564.729Z" transform="translate(-2117.382 27.247)" fill="#d68f15"/><path d="M2245.993,139.451s16.96-15.291,26.963-18.935,13.978-5.743,17.184-4.676,7.809,12.265-3.395,20.6-45.554,21.79-45.554,21.79" transform="translate(-2197.013 -61.496)" fill="#674b14" stroke="#707070" stroke-width="1"/><path d="M2188.571-103.763a25.035,25.035,0,0,1,2.462,4.046c1.018,2.167.781,2.745,1.61,4.624a9.239,9.239,0,0,0,1.7,2.89c.994,1.358,1.208.925,2.273,2.543a26.268,26.268,0,0,1,1.989,3.93l.663,2.428a19.239,19.239,0,0,1,0,3.352,25.307,25.307,0,0,1-.663,3.584s-.055.12-.185.39a16.32,16.32,0,0,1-1.8,2.962,24.845,24.845,0,0,1-5.007,4.624c-1.894,1.156-8.346,0-8.346,0h0" transform="translate(-2141.47 109.036)" fill="#d68f15" stroke="#707070" stroke-width="1"/><path d="M0,4.726s3.479,9.169,5.633,10.6S8.615,10.47,8.615,10.47s5.343,2.618,5.633,0S9.775,0,9.775,0" transform="translate(42.448 89.874) rotate(-9)" fill="#413b07" stroke="#707070" stroke-width="1"/><path d="M2063.256-84.879c-.611-1.055-2.327-2.206-3.1-4.426a9.962,9.962,0,0,1-.657-4.662c0-2.109-.117-1.859.657-3.774a12.542,12.542,0,0,1,2.443-3.885,7.452,7.452,0,0,1,2.067-1.776c.176-.23,1.672-3.508,1.785-3.774s1.608-4.487,2.161-5.55a34.513,34.513,0,0,1,3.1-4.44,23.87,23.87,0,0,1,3.672-2.17c.94-.555-.828.156.086-.051a13.67,13.67,0,0,1,3.57-.777,16.834,16.834,0,0,1,5.542,0c2.677.416,3.03.361,5.167,1.665a10.83,10.83,0,0,1,3.382,3.552" transform="translate(-2045.693 120.402)" fill="#d68f15" stroke="#707070" stroke-width="1"/><path d="M2092.96,15.58c.3,6.337,1.217,24.976,1.211,25.35S2095.378,49,2095.378,49l1.644,8.09,1.14,3.409,1.831,6.2a12.868,12.868,0,0,1,.389,2.953,20.287,20.287,0,0,1-1.219,4.5c-.82,2.427-2.982,4.948-3.282,5.8a25.219,25.219,0,0,1-2.2,3.407l-1.687,1.752a7.246,7.246,0,0,1-1.812,1.219,7.527,7.527,0,0,1-6.367,0c-3.254-1.292-6.786-5.423-6.651-5.168a2.769,2.769,0,0,0-3.136,0,36.326,36.326,0,0,0-5.891,4.618,1.152,1.152,0,0,1-.571.55,2.022,2.022,0,0,1-.95,0s-3.753.66-5.606,0a4.044,4.044,0,0,1-2.406-2.27l-1.3-1.8-2.28-3.739a19.089,19.089,0,0,1-2.376-6.378,31.308,31.308,0,0,1,0-7.917l1.9-7.147,1.723-8.09a12.788,12.788,0,0,0,.7-3.5c.119-2.007.334-4.57.334-4.57l.475-25.62" transform="translate(-2040.169 10.786)" fill="#d68f15" stroke="#707070" stroke-width="1"/><path d="M8.081,0s-7.2,5.372-8,7.814,4.8,1.954,4.8,1.954S3.359,17,6.32,15.043s10.4-13.089,10.4-13.089" transform="matrix(0.914, -0.407, 0.407, 0.914, 12.254, 100.332)" fill="#413b07" stroke="#707070" stroke-width="1"/><path d="M2066.5-43.17a9.431,9.431,0,0,1,2.914,0,6.767,6.767,0,0,1,2.4,1.067l3.206,2.223s3.241,2.224,3.946,2.729a5.611,5.611,0,0,1,1.518,1.717,3.834,3.834,0,0,1,.583,1.867,11.428,11.428,0,0,1,0,3.112,5.225,5.225,0,0,1-1.02,2.223l-1.986,3.918s-.8-2.651-1.292-.273a54.673,54.673,0,0,0-.51,7.558,11.845,11.845,0,0,1-1.238,3.824,13.7,13.7,0,0,1-3.206,2.845l-3.934,1.423L2063-8.491l-5.464-.445s-2.623-.978-3.424-1.423-3.132-1.689-3.132-1.689-2.622-3.112-2.841-4.09a26.407,26.407,0,0,1-.364-2.668l.947-3.112,3.351-3.735,2.04-1.956s.638-1.444.729-1.778a7.8,7.8,0,0,1,1.093-4.624c1.493-2.69,5.359-5.508,5.973-6.313a10.521,10.521,0,0,1,2.623-2.223A6.748,6.748,0,0,1,2066.5-43.17Z" transform="translate(-2036.919 62.359)" fill="#674b14" stroke="#707070" stroke-width="1"/><path d="M19.127,0S5.273,8.036,1.339,11.181s2.053,1.781,2.053,1.781S1.5,15.215,1.948,16.108s3.587-.684,3.587-.684-3.853,4.453-.364,3.21,13.957-7.454,13.957-7.454" transform="matrix(0.719, -0.695, 0.695, 0.719, 5.998, 68.83)" fill="#413b07" stroke="#707070" stroke-width="1"/><path d="M2237.874,64.318s6.556-7.852,8.741-9.618,0,2.555,0,2.555,2.188-1.688,2.68-1.087-.71,3.491-.71,3.491,4.432-3.569,1.97.751-11.819,16.53-11.819,16.53" transform="matrix(0.951, -0.309, 0.309, 0.951, -2106.861, 688.345)" fill="#413b07" stroke="#707070" stroke-width="1"/><g transform="translate(26.237 24.569)" fill="#fff" stroke="#707070" stroke-width="1"><ellipse cx="1.114" cy="1.359" rx="1.114" ry="1.359" stroke="none"/><ellipse cx="1.114" cy="1.359" rx="0.614" ry="0.859" fill="none"/></g><g transform="translate(36.117 27.831)" fill="#fff" stroke="#707070" stroke-width="1"><ellipse cx="1.114" cy="1.359" rx="1.114" ry="1.359" stroke="none"/><ellipse cx="1.114" cy="1.359" rx="0.614" ry="0.859" fill="none"/></g><g transform="translate(26.019 5.272)" fill="#fff" stroke="#707070" stroke-width="1"><ellipse cx="2.45" cy="6.932" rx="2.45" ry="6.932" stroke="none"/><ellipse cx="2.45" cy="6.932" rx="1.95" ry="6.432" fill="none"/></g><g transform="translate(28.468 9.349)" stroke="#707070" stroke-width="1"><ellipse cx="0.779" cy="3.942" rx="0.779" ry="3.942" stroke="none"/><ellipse cx="0.779" cy="3.942" rx="0.279" ry="3.442" fill="none"/></g><g transform="translate(40.843 6.631)" fill="#fff" stroke="#707070" stroke-width="1"><ellipse cx="2.45" cy="6.932" rx="2.45" ry="6.932" stroke="none"/><ellipse cx="2.45" cy="6.932" rx="1.95" ry="6.432" fill="none"/></g><g transform="translate(42.847 10.165)" stroke="#707070" stroke-width="1"><ellipse cx="0.779" cy="3.942" rx="0.779" ry="3.942" stroke="none"/><ellipse cx="0.779" cy="3.942" rx="0.279" ry="3.442" fill="none"/></g></g></svg>