<svg xmlns="http://www.w3.org/2000/svg" width="79.718" height="86.131" viewBox="0 0 79.718 86.131"><g transform="translate(0.5 0.474)"><path d="M2161.5-21.59,2148.843-9.78l2.708.876,4.692,3.02,2.2,1.631.456.544Z" transform="translate(-2122.991 25.812)" fill="#d68f15"/><path d="M2245.074,133.39s13.713-11.411,21.8-14.131,11.3-4.286,13.894-3.489,6.315,9.153-2.744,15.377-36.834,16.261-36.834,16.261" transform="translate(-2205.057 -75.214)" fill="#674b14" stroke="#707070" stroke-width="1"/><path d="M2187.556-103.763a18.5,18.5,0,0,1,1.991,3.019c.823,1.618.632,2.049,1.3,3.451a6.8,6.8,0,0,0,1.378,2.157c.8,1.014.976.69,1.838,1.9a19.057,19.057,0,0,1,1.608,2.933l.536,1.812a13.257,13.257,0,0,1,0,2.5,17.608,17.608,0,0,1-.536,2.674s-.044.089-.15.291a12.046,12.046,0,0,1-1.458,2.21,19.566,19.566,0,0,1-4.049,3.451c-1.531.863-6.749,0-6.749,0h0" transform="translate(-2149.058 107.698)" fill="#d68f15" stroke="#707070" stroke-width="1"/><path d="M2062.535-93.892c-.494-.787-1.882-1.646-2.509-3.3a6.908,6.908,0,0,1-.532-3.479,4.381,4.381,0,0,1,.532-2.817,9.29,9.29,0,0,1,1.975-2.9,5.956,5.956,0,0,1,1.671-1.325c.142-.171,1.352-2.618,1.443-2.817s1.3-3.349,1.747-4.142a25.839,25.839,0,0,1,2.507-3.314,19.685,19.685,0,0,1,2.969-1.619c.76-.414-.67.117.069-.038a11.84,11.84,0,0,1,2.886-.58,14.737,14.737,0,0,1,4.482,0c2.165.311,2.45.269,4.178,1.243a8.35,8.35,0,0,1,2.734,2.651" transform="translate(-2047.921 120.402)" fill="#d68f15" stroke="#707070" stroke-width="1"/><path d="M2085.193,15.525c.245,5.043.984,19.875.979,20.173s.976,6.425.976,6.425l1.329,6.438.922,2.713,1.481,4.936a10.1,10.1,0,0,1,.315,2.35,15.943,15.943,0,0,1-.986,3.585c-.663,1.931-2.411,3.937-2.654,4.617a20.038,20.038,0,0,1-1.781,2.711l-1.364,1.394a5.859,5.859,0,0,1-1.465.97,6.175,6.175,0,0,1-5.148,0c-2.631-1.028-5.487-4.315-5.378-4.113a2.267,2.267,0,0,0-2.535,0,29.29,29.29,0,0,0-4.764,3.675.923.923,0,0,1-.461.438,1.661,1.661,0,0,1-.768,0s-3.035.525-4.533,0a3.242,3.242,0,0,1-1.946-1.806l-1.051-1.431-1.844-2.975a15.055,15.055,0,0,1-1.921-5.075,24.507,24.507,0,0,1,0-6.3l1.537-5.688,1.393-6.438a10.046,10.046,0,0,0,.565-2.788c.1-1.6.27-3.637.27-3.637l.384-20.388" transform="translate(-2042.094 4.165)" fill="#d68f15" stroke="#707070" stroke-width="1"/><path d="M2050.122,282.443s-5.824,4.009-6.471,5.832,3.882,1.458,3.882,1.458-1.229,5.394,1.165,3.936,8.412-9.768,8.412-9.768" transform="translate(-2034.883 -208.778)" fill="#413b07" stroke="#707070" stroke-width="1"/><path d="M2196.3,278.223s2.718,7.15,4.4,8.269,2.33-3.791,2.33-3.791,4.174,2.041,4.4,0-3.494-8.164-3.494-8.164" transform="translate(-2160.104 -202.476)" fill="#413b07" stroke="#707070" stroke-width="1"/><path d="M2062.917-43.2a8.255,8.255,0,0,1,2.356,0,5.682,5.682,0,0,1,1.944.8l2.592,1.659s2.621,1.659,3.191,2.036a4.316,4.316,0,0,1,1.227,1.282,2.7,2.7,0,0,1,.471,1.394,7.872,7.872,0,0,1,0,2.323,3.79,3.79,0,0,1-.825,1.659l-1.606,2.924s-.647-1.979-1.045-.2a37.707,37.707,0,0,0-.412,5.641,8.348,8.348,0,0,1-1,2.853,10.883,10.883,0,0,1-2.592,2.124l-3.181,1.062-3.947.332-4.418-.332s-2.12-.73-2.769-1.062-2.533-1.261-2.533-1.261a16.1,16.1,0,0,1-2.3-3.053,18.269,18.269,0,0,1-.295-1.991l.766-2.323,2.71-2.787,1.649-1.46s.516-1.078.589-1.327a5.447,5.447,0,0,1,.883-3.451c1.208-2.007,4.333-4.11,4.831-4.712a8.368,8.368,0,0,1,2.121-1.659A5.8,5.8,0,0,1,2062.917-43.2Z" transform="translate(-2038.585 57.52)" fill="#674b14" stroke="#707070" stroke-width="1"/><path d="M2010.714,93.429s-11.2,6-14.383,8.344,1.66,1.329,1.66,1.329-1.527,1.682-1.168,2.348,2.9-.51,2.9-.51-3.115,3.323-.294,2.4,11.285-5.563,11.285-5.563" transform="translate(-1995.248 -54.871)" fill="#413b07" stroke="#707070" stroke-width="1"/><path d="M2237.874,61.77s5.3-5.86,7.068-7.177,0,1.907,0,1.907,1.769-1.26,2.167-.811-.574,2.605-.574,2.605,3.584-2.664,1.593.561-9.557,12.336-9.557,12.336" transform="translate(-2194.194 -22.584)" fill="#413b07" stroke="#707070" stroke-width="1"/><g transform="translate(21.627 18.335)" fill="#fff" stroke="#707070" stroke-width="1"><ellipse cx="0.9" cy="1.014" rx="0.9" ry="1.014" stroke="none"/><ellipse cx="0.9" cy="1.014" rx="0.4" ry="0.514" fill="none"/></g><g transform="translate(29.616 20.769)" fill="#fff" stroke="#707070" stroke-width="1"><ellipse cx="0.9" cy="1.014" rx="0.9" ry="1.014" stroke="none"/><ellipse cx="0.9" cy="1.014" rx="0.4" ry="0.514" fill="none"/></g><g transform="translate(21.451 3.934)" fill="#fff" stroke="#707070" stroke-width="1"><ellipse cx="1.981" cy="5.173" rx="1.981" ry="5.173" stroke="none"/><ellipse cx="1.981" cy="5.173" rx="1.481" ry="4.673" fill="none"/></g><g transform="translate(23.432 6.977)" stroke="#707070" stroke-width="1"><ellipse cx="0.63" cy="2.941" rx="0.63" ry="2.941" stroke="none"/><ellipse cx="0.63" cy="2.941" rx="0.13" ry="2.441" fill="none"/></g><g transform="translate(33.437 4.948)" fill="#fff" stroke="#707070" stroke-width="1"><ellipse cx="1.981" cy="5.173" rx="1.981" ry="5.173" stroke="none"/><ellipse cx="1.981" cy="5.173" rx="1.481" ry="4.673" fill="none"/></g><g transform="translate(35.058 7.586)" stroke="#707070" stroke-width="1"><ellipse cx="0.63" cy="2.941" rx="0.63" ry="2.941" stroke="none"/><ellipse cx="0.63" cy="2.941" rx="0.13" ry="2.441" fill="none"/></g></g></svg>