<svg xmlns="http://www.w3.org/2000/svg" width="233.542" height="104.487" viewBox="0 0 233.542 104.487"><g transform="translate(15.346)" fill="#fff"><path d="M 111.6076889038086 103.986572265625 C 104.5873947143555 103.986572265625 97.17154693603516 103.0664825439453 88.93642425537109 101.1737213134766 C 81.65195465087891 99.49945831298828 74.65859985351563 97.29724884033203 67.89551544189453 95.16754150390625 C 56.24724960327148 91.49945831298828 45.24498748779297 88.03480529785156 34.96195602416992 88.03480529785156 C 22.6856517791748 88.03480529785156 12.90289783477783 93.00801849365234 4.223949909210205 103.6748199462891 C 1.944475412368774 100.3239974975586 -2.288758039474487 88.47770690917969 -7.004690647125244 72.19122314453125 C -11.47480773925781 56.75374984741211 -14.84569072723389 42.57378005981445 -14.84569072723389 39.2073974609375 C -14.84569072723389 35.79827880859375 -13.84983730316162 32.53595352172852 -11.88577842712402 29.51095581054688 C -10.00089645385742 26.60789680480957 -7.180808067321777 23.8522777557373 -3.503925800323486 21.32063102722168 C 3.384309530258179 16.57792472839355 13.37101554870605 12.5229549407959 26.1788387298584 9.268366813659668 C 37.77139663696289 6.322572708129883 51.50048446655273 4.067690372467041 66.98474884033203 2.566366672515869 C 81.12610626220703 1.19521963596344 96.13942718505859 0.5000137686729431 111.6076889038086 0.5000137686729431 C 125.9631042480469 0.5000137686729431 139.8879852294922 1.877807855606079 152.9954833984375 4.595131397247314 C 159.2925720214844 5.900572776794434 165.365478515625 7.51616096496582 171.0455169677734 9.396984100341797 C 176.6681671142578 11.25880813598633 181.9544219970703 13.39651393890381 186.7575225830078 15.75069046020508 C 191.5552215576172 18.10222053527832 195.9095153808594 20.68869018554688 199.699462890625 23.43827819824219 C 203.5178985595703 26.20854377746582 206.7957458496094 29.16804313659668 209.4419555664063 32.2344856262207 C 212.1281585693359 35.3472785949707 214.1898651123047 38.60160064697266 215.5699005126953 41.90707397460938 C 216.9812164306641 45.28751373291016 217.6968078613281 48.76510238647461 217.6968078613281 52.24327850341797 C 217.6968078613281 55.72145462036133 216.9812164306641 59.19904327392578 215.5699005126953 62.57948303222656 C 214.1898651123047 65.88495635986328 212.1281585693359 69.1392822265625 209.4419555664063 72.2520751953125 C 206.7957458496094 75.31854248046875 203.5178985595703 78.27801513671875 199.699462890625 81.04827880859375 C 195.9095153808594 83.79786682128906 191.5552215576172 86.38436889648438 186.7575225830078 88.73589324951172 C 181.9544219970703 91.09007263183594 176.6681671142578 93.22775268554688 171.0455169677734 95.08956909179688 C 165.365478515625 96.97042846679688 159.2925720214844 98.58598327636719 152.9954833984375 99.89145660400391 C 139.8879852294922 102.6087799072266 125.9631042480469 103.986572265625 111.6076889038086 103.986572265625 Z" stroke="none"/><path d="M 111.6076889038086 0.9999847412109375 C 96.15545654296875 0.9999847412109375 81.15837097167969 1.694427490234375 67.03302001953125 3.063987731933594 C 51.57389831542969 4.562896728515625 37.87001037597656 6.813369750976563 26.30195617675781 9.752952575683594 C 13.55169677734375 12.99292755126953 3.618927001953125 17.02342224121094 -3.22039794921875 21.73245239257813 C -6.843048095703125 24.22674560546875 -9.617431640625 26.9354248046875 -11.46646118164063 29.78324890136719 C -13.37698364257813 32.72580718994141 -14.34571838378906 35.89654541015625 -14.34571838378906 39.2073974609375 C -14.34571838378906 42.5333366394043 -10.98330688476563 56.65351486206055 -6.524429321289063 72.05213165283203 C -4.250686645507813 79.90445709228516 -2.015167236328125 86.9637451171875 -0.0594482421875 92.46681213378906 C 2.082229614257813 98.49329376220703 3.453842163085938 101.4097290039063 4.279434204101563 102.8203659057617 C 12.95040893554688 92.39906311035156 22.73200988769531 87.53480529785156 34.96195983886719 87.53480529785156 C 45.32183837890625 87.53480529785156 56.35972595214844 91.01065826416016 68.04568481445313 94.69060516357422 C 74.79951477050781 96.81739807128906 81.78324890136719 99.01657104492188 89.04842376708984 100.686393737793 C 97.24636840820313 102.5706024169922 104.6255416870117 103.4865417480469 111.6076889038086 103.4865417480469 C 125.9290771484375 103.4865417480469 139.8197784423828 102.1122512817383 152.8939819335938 99.40184020996094 C 159.1723022460938 98.10028076171875 165.2264862060547 96.48972320556641 170.8883056640625 94.61489868164063 C 176.4895172119141 92.76019287109375 181.754638671875 90.63113403320313 186.5374603271484 88.28689575195313 C 191.3094787597656 85.94795227050781 195.6390075683594 83.37636566162109 199.4058074951172 80.64356994628906 C 203.1930694580078 77.89592742919922 206.4423675537109 74.96269226074219 209.0634002685547 71.92539978027344 C 211.7149810791016 68.85269165039063 213.7488403320313 65.64345550537109 215.1084594726563 62.38686752319336 C 216.4941558837891 59.0677490234375 217.19677734375 55.65495681762695 217.19677734375 52.24327850341797 C 217.19677734375 48.83160018920898 216.4941558837891 45.41880798339844 215.1084594726563 42.09968948364258 C 213.7488403320313 38.84310150146484 211.7149810791016 35.63386535644531 209.0634002685547 32.5611572265625 C 206.4423675537109 29.52386474609375 203.1930694580078 26.59062957763672 199.4058074951172 23.84298706054688 C 195.6390075683594 21.11019134521484 191.3094787597656 18.53857421875 186.5374603271484 16.19963073730469 C 181.754638671875 13.85539245605469 176.4895172119141 11.72633361816406 170.8883056640625 9.871627807617188 C 165.2264862060547 7.996810913085938 159.1723022460938 6.386276245117188 152.8939819335938 5.084693908691406 C 139.8197784423828 2.374275207519531 125.9290771484375 0.9999847412109375 111.6076889038086 0.9999847412109375 M 111.6076889038086 -1.52587890625e-05 C 170.4752197265625 -1.52587890625e-05 218.19677734375 23.39009857177734 218.19677734375 52.24327850341797 C 218.19677734375 81.09645080566406 170.4752197265625 104.4865417480469 111.6076889038086 104.4865417480469 C 82.17572021484375 104.4865417480469 56.97064208984375 88.53480529785156 34.96195983886719 88.53480529785156 C 23.95559692382813 88.53480529785156 13.75164794921875 92.52127838134766 4.212158203125 104.4865417480469 C -0.903045654296875 98.56207275390625 -15.34571838378906 46.42068862915039 -15.34571838378906 39.2073974609375 C -15.34571838378906 10.35421752929688 52.74018859863281 -1.52587890625e-05 111.6076889038086 -1.52587890625e-05 Z" stroke="none" fill="#707070"/></g><text transform="translate(39.846 44)" font-size="22" font-family="Gabriola"><tspan x="0" y="0">OH! LOOK! A</tspan><tspan y="0" xml:space="preserve" font-size="37"> bird</tspan><tspan y="0">!</tspan><tspan x="0" y="27">Lets meet him!</tspan></text></svg>