<svg xmlns="http://www.w3.org/2000/svg" width="200.555" height="71.925" viewBox="0 0 200.555 71.925"><g transform="translate(1.664)" fill="#fff"><path d="M 99.67203521728516 71.42455291748047 C 93.11435699462891 71.42455291748047 86.20870971679688 70.78780364990234 78.56050872802734 69.47795867919922 C 71.80058288574219 68.32020568847656 65.33460998535156 66.79958343505859 59.08155822753906 65.32903289794922 C 48.39935684204102 62.81685638427734 38.3095817565918 60.4439811706543 28.8817081451416 60.4439811706543 C 17.59677124023438 60.4439811706543 8.555891036987305 63.87267303466797 0.4725973606109619 71.22721862792969 C -0.1158900633454323 70.49751281738281 -0.551568865776062 69.21937561035156 -0.8249673247337341 67.41722869873047 C -1.110942363739014 65.53212738037109 -1.216392397880554 63.03975677490234 -1.138367295265198 60.00935363769531 C -0.9942423701286316 54.41123199462891 -0.2502173483371735 47.84015655517578 0.2930326461791992 43.04215621948242 C 0.6615326404571533 39.78768157958984 0.9525826573371887 37.21710586547852 0.9525826573371887 35.9622802734375 C 0.9525826573371887 33.60948181152344 1.609057664871216 31.25370597839355 2.903782606124878 28.96043014526367 C 4.178657531738281 26.70228004455566 6.086757659912109 24.47612953186035 8.575082778930664 22.34380531311035 C 11.03443241119385 20.23630523681641 14.08233261108398 18.20153045654297 17.63408279418945 16.29603004455566 C 21.16233253479004 14.40313053131104 25.21638298034668 12.62235546112061 29.68368339538574 11.00318050384521 C 38.76520919799805 7.711555480957031 49.34430694580078 5.126680374145508 61.12710952758789 3.320330381393433 C 73.33438110351563 1.448905229568481 86.30278015136719 0.5000052452087402 99.67203521728516 0.5000052452087402 C 113.0412826538086 0.5000052452087402 126.0096817016602 1.448905229568481 138.2169647216797 3.320330381393433 C 149.9997863769531 5.126680374145508 160.5788879394531 7.711555480957031 169.660400390625 11.00318050384521 C 174.127685546875 12.62235546112061 178.1817626953125 14.40313053131104 181.7100067138672 16.29603004455566 C 185.2617645263672 18.20153045654297 188.3096618652344 20.23630523681641 190.7690124511719 22.34380531311035 C 193.2573394775391 24.47612953186035 195.1654357910156 26.70228004455566 196.4403076171875 28.96043014526367 C 197.7350311279297 31.25370597839355 198.3915100097656 33.60948181152344 198.3915100097656 35.9622802734375 C 198.3915100097656 38.31507873535156 197.7350311279297 40.67085647583008 196.4403076171875 42.96413040161133 C 195.1654357910156 45.2222785949707 193.2573394775391 47.44842910766602 190.7690124511719 49.58075714111328 C 188.3096618652344 51.68825531005859 185.2617645263672 53.72303009033203 181.7100067138672 55.6285285949707 C 178.1817626953125 57.52143096923828 174.127685546875 59.30220413208008 169.660400390625 60.92137908935547 C 160.5788879394531 64.21300506591797 149.9997863769531 66.79788208007813 138.2169647216797 68.60423278808594 C 126.0096817016602 70.47565460205078 113.0412826538086 71.42455291748047 99.67203521728516 71.42455291748047 Z" stroke="none"/><path d="M 99.67204284667969 0.9999923706054688 C 86.32807159423828 0.9999923706054688 73.38517761230469 1.946937561035156 61.202880859375 3.814544677734375 C 49.45225524902344 5.615966796875 38.90499877929688 8.192726135253906 29.85404968261719 11.4732551574707 C 25.40939331054688 13.084228515625 21.37751770019531 14.85509490966797 17.87046813964844 16.73662185668945 C 14.35043334960938 18.6251220703125 11.33247375488281 20.63938522338867 8.900436401367188 22.72346496582031 C 3.958419799804688 26.95846557617188 1.452590942382813 31.41264724731445 1.452590942382813 35.9622802734375 C 1.452590942382813 37.24530792236328 1.16015625 39.82825469970703 0.789886474609375 43.09838485717773 C 0.247650146484375 47.88725280761719 -0.4949493408203125 54.44586181640625 -0.6385345458984375 60.0222282409668 C -0.8038482666015625 66.44361114501953 -0.09967041015625 69.24626922607422 0.569732666015625 70.46737670898438 C 8.639923095703125 63.29265975952148 17.66571044921875 59.94399261474609 28.88172912597656 59.94399261474609 C 38.36756896972656 59.94399261474609 48.48478698730469 62.32330703735352 59.19601440429688 64.84230804443359 C 65.44175720214844 66.31114959716797 71.90010070800781 67.82999420166016 78.64494323730469 68.98514556884766 C 86.26493835449219 70.29017639160156 93.14296722412109 70.92456817626953 99.67204284667969 70.92456817626953 C 113.0160217285156 70.92456817626953 125.9589157104492 69.97762298583984 138.1412048339844 68.11001586914063 C 149.8918304443359 66.30859375 160.4391021728516 63.73183441162109 169.4900512695313 60.4513053894043 C 173.9347076416016 58.84033203125 177.9665679931641 57.06946563720703 181.4736328125 55.18793869018555 C 184.9936828613281 53.2994384765625 188.0116271972656 51.28517532348633 190.4436492919922 49.20109558105469 C 195.3856964111328 44.96609497070313 197.8915252685547 40.51190948486328 197.8915252685547 35.9622802734375 C 197.8915252685547 31.41264724731445 195.3856964111328 26.95846557617188 190.4436492919922 22.72346496582031 C 188.0116271972656 20.63938522338867 184.9936828613281 18.6251220703125 181.4736328125 16.73662185668945 C 177.9665679931641 14.85509490966797 173.9347076416016 13.084228515625 169.4900512695313 11.4732551574707 C 160.4391021728516 8.192726135253906 149.8918304443359 5.615966796875 138.1412048339844 3.814544677734375 C 125.9589157104492 1.946937561035156 113.0160217285156 0.9999923706054688 99.67204284667969 0.9999923706054688 M 99.67204284667969 -7.62939453125e-06 C 154.4694213867188 -7.62939453125e-06 198.8915252685547 16.10086059570313 198.8915252685547 35.9622802734375 C 198.8915252685547 55.82369995117188 154.4694213867188 71.92456817626953 99.67204284667969 71.92456817626953 C 72.27503204345703 71.92456817626953 49.14628601074219 60.94399642944336 28.8817138671875 60.94399642944336 C 18.74757385253906 60.94399642944336 9.33251953125 63.68813323974609 0.4525909423828125 71.92456817626953 C -4.3089599609375 67.84638214111328 0.4525909423828125 40.92761993408203 0.4525909423828125 35.9622802734375 C 0.4525909423828125 16.10086059570313 44.87464904785156 -7.62939453125e-06 99.67204284667969 -7.62939453125e-06 Z" stroke="none" fill="#707070"/></g><text transform="translate(103.555 33.962)" font-size="18" font-family="Gabriola"><tspan x="-90.336" y="0">Oh! Would be a pleasure for me .</tspan><tspan x="-36.916" y="15" xml:space="preserve">Have a  look! </tspan></text></svg>