<svg id="Komponente_14_2" data-name="Komponente 14 – 2" xmlns="http://www.w3.org/2000/svg" width="195" height="176" viewBox="0 0 195 176">
  <g id="Polygon_1" data-name="Polygon 1" fill="#2d3047">
    <path d="M 76.44940185546875 143.7380981445313 C 73.39752960205078 143.7381591796875 70.42630767822266 142.3322143554688 68.5008544921875 139.97705078125 C 66.65897369384766 137.7240905761719 65.98095703125 134.8260192871094 66.59174346923828 131.8166961669922 L 67.40894317626953 127.790153503418 C 68.06269073486328 124.5690536499023 67.24760437011719 121.2658309936523 65.17270660400391 118.7275009155273 C 63.08570861816406 116.1743850708008 60.01837539672852 114.7100982666016 56.7571907043457 114.7100982666016 C 56.15515899658203 114.7100982666016 55.54417419433594 114.7606506347656 54.94122314453125 114.8603363037109 L 51.44429016113281 115.4384994506836 C 50.83500671386719 115.5392303466797 50.22622299194336 115.5903472900391 49.63485717773438 115.5904312133789 C 49.63444519042969 115.5904312133789 49.6338996887207 115.5904312133789 49.63348770141602 115.5904312133789 C 47.38447570800781 115.590461730957 45.29909515380859 114.8522262573242 43.60247421264648 113.4554824829102 C 42.04000854492188 112.1691818237305 40.86209106445313 110.3513641357422 40.28569030761719 108.3369140625 C 39.70637512207031 106.3122024536133 39.74884033203125 104.2388534545898 40.40848922729492 102.3410034179688 C 41.12808990478516 100.2706832885742 42.5738410949707 98.51255035400391 44.58942413330078 97.25666809082031 C 47.80717468261719 95.25171661376953 49.72822570800781 91.79126739501953 49.72822570800781 88 C 49.72820663452148 84.20871734619141 47.80715942382813 80.74826812744141 44.58940887451172 78.74331665039063 C 42.57414245605469 77.48761749267578 41.12860870361328 75.72978210449219 40.40909194946289 73.65985107421875 C 39.7495231628418 71.76235198974609 39.70698928833008 69.68927001953125 40.28612518310547 67.66473388671875 C 40.86240768432617 65.65011596679688 42.04027557373047 63.83205032348633 43.60275650024414 62.54543304443359 C 45.29965591430664 61.14813232421875 47.38554000854492 60.40954971313477 49.63494110107422 60.40954971313477 C 50.22577285766602 60.40954971313477 50.83452606201172 60.46066665649414 51.44429016113281 60.56148147583008 L 54.94122314453125 61.1396484375 C 55.54417419433594 61.23933410644531 56.15515899658203 61.28988265991211 56.7571907043457 61.28988265991211 C 60.01864242553711 61.28988265991211 63.08605575561523 59.82568359375 65.17294311523438 57.27270126342773 C 67.24775695800781 54.73446655273438 68.06275939941406 51.43118286132813 67.40895843505859 48.20983505249023 L 66.59174346923828 44.18330001831055 C 65.98110961914063 41.17466735839844 66.65900421142578 38.27705001831055 68.50055694580078 36.02420043945313 C 70.42627716064453 33.66836547851563 73.39832305908203 32.26190185546875 76.45077514648438 32.26190185546875 C 79.48837280273438 32.26190185546875 82.22943878173828 33.65841674804688 84.16902160644531 36.19421768188477 L 88.83702087402344 42.29711532592773 C 90.91770935058594 45.01738357543945 94.07524108886719 46.57753372192383 97.50000762939453 46.57753372192383 C 100.9247589111328 46.57753372192383 104.0822906494141 45.01738357543945 106.162971496582 42.29711532592773 L 110.8309555053711 36.19424819946289 C 112.7705383300781 33.65845108032227 115.511589050293 32.26191711425781 118.5491943359375 32.26191711425781 C 121.6019592285156 32.26191711425781 124.574089050293 33.66828155517578 126.4996719360352 36.02394866943359 C 128.3411254882813 38.27666854858398 129.0189361572266 41.17440032958984 128.4082336425781 44.18331527709961 L 127.5910415649414 48.20983505249023 C 126.9372940063477 51.43095016479492 127.7523727416992 54.73418426513672 129.8272705078125 57.27251815795898 C 131.9142608642578 59.82561492919922 134.9815979003906 61.28988265991211 138.2427520751953 61.28988265991211 C 138.8448028564453 61.28988265991211 139.4557800292969 61.23934936523438 140.0587463378906 61.1396484375 L 143.5557556152344 60.56148147583008 C 144.16552734375 60.46066665649414 144.7742767333984 60.40954971313477 145.3651123046875 60.40954971313477 C 147.6147766113281 60.40954971313477 149.7008666992188 61.14810180664063 151.3978729248047 62.54533386230469 C 152.9604034423828 63.83186721801758 154.1383056640625 65.64984893798828 154.7145690917969 67.66438293457031 C 155.2936859130859 69.68888092041016 155.2510833740234 71.76198577880859 154.5914001464844 73.65955352783203 C 153.8717803955078 75.72956848144531 152.4260711669922 77.48748016357422 150.4106140136719 78.74330139160156 C 147.1928253173828 80.74828338623047 145.2717742919922 84.20873260498047 145.2717742919922 88.00001525878906 C 145.2717742919922 91.79129791259766 147.1928253173828 95.25173187255859 150.4105682373047 97.25668334960938 C 152.4258270263672 98.51235198974609 153.871337890625 100.270133972168 154.5908508300781 102.3399810791016 C 155.2504577636719 104.2373962402344 155.2930297851563 106.3104019165039 154.7139587402344 108.3348846435547 C 154.1377105712891 110.3495178222656 152.9598541259766 112.1676330566406 151.3973541259766 113.4543151855469 C 149.700439453125 114.8516998291016 147.614501953125 115.5903472900391 145.3650512695313 115.590446472168 C 144.7743835449219 115.5904693603516 144.1656341552734 115.5393524169922 143.5557250976563 115.4385147094727 L 140.0587615966797 114.8603515625 C 139.455810546875 114.7606658935547 138.8448181152344 114.7101135253906 138.2427978515625 114.7101135253906 C 134.9813537597656 114.7101135253906 131.9139404296875 116.17431640625 129.8270568847656 118.7272796630859 C 127.7522430419922 121.2655181884766 126.9372406005859 124.5688171386719 127.5910415649414 127.790168762207 L 128.4082336425781 131.8166961669922 C 129.0188598632813 134.8252563476563 128.3410034179688 137.7228240966797 126.4995422363281 139.9756164550781 C 124.5738372802734 142.3314819335938 121.6017379760742 143.7380218505859 118.5491943359375 143.7380981445313 C 115.5116577148438 143.7381896972656 112.7706069946289 142.3416442871094 110.8309555053711 139.8057861328125 L 106.162971496582 133.702880859375 C 104.0822906494141 130.9826354980469 100.9247589111328 129.4224853515625 97.50000762939453 129.4224853515625 C 94.07524108886719 129.4224853515625 90.91770935058594 130.9826354980469 88.83702087402344 133.702880859375 L 84.16900634765625 139.8057861328125 C 82.22974395751953 142.3411712646484 79.48865509033203 143.7377014160156 76.45070648193359 143.7380981445313 C 76.45033264160156 143.7380981445313 76.44977569580078 143.7380981445313 76.44940185546875 143.7380981445313 Z" stroke="none"/>
    <path d="M 76.4508056640625 32.76190185546875 C 73.54670715332031 32.761962890625 70.71932220458984 34.09988403320313 68.88755798339844 36.3408203125 C 68.05125427246094 37.36393737792969 67.46527099609375 38.52133178710938 67.14588928222656 39.78085327148438 C 66.80036926269531 41.14344787597656 66.77877807617188 42.5911865234375 67.08172607421875 44.08384704589844 L 67.89894104003906 48.11038208007813 C 68.58272552490234 51.47938537597656 67.730224609375 54.93426513671875 65.56005859375 57.58914947509766 C 63.37782287597656 60.25876617431641 60.1693115234375 61.78988647460938 56.75718688964844 61.78988647460938 C 56.12791442871094 61.78988647460938 55.48948669433594 61.73708343505859 54.85968017578125 61.63294982910156 L 51.36271667480469 61.05478668212891 C 50.77969360351563 60.95839691162109 50.19837951660156 60.90953063964844 49.63496398925781 60.90955352783203 C 47.50283813476563 60.90962982177734 45.52680969238281 61.60886383056641 43.92047119140625 62.93166351318359 C 42.4354248046875 64.15456390380859 41.31541442871094 65.88445281982422 40.76675415039063 67.80263519287109 C 40.21617126464844 69.72754669189453 40.25582885742188 71.69623565673828 40.88140869140625 73.495849609375 C 41.56298828125 75.45658111572266 42.9366455078125 77.12438201904297 44.85382080078125 78.31894683837891 C 48.21908569335938 80.41581726074219 50.22821044921875 84.03489685058594 50.22822570800781 87.99998474121094 C 50.22822570800781 91.96508026123047 48.21910095214844 95.58415222167969 44.85383605957031 97.6810302734375 C 42.93643188476563 98.87574768066406 41.56259155273438 100.5437164306641 40.88088989257813 102.5046157836914 C 40.25520324707031 104.3043670654297 40.21554565429688 106.2731475830078 40.76617431640625 108.1980972290039 C 41.31483459472656 110.1161804199219 42.43487548828125 111.8459014892578 43.91996765136719 113.0686645507813 C 45.5263671875 114.3913116455078 47.50257873535156 115.0904388427734 49.63490295410156 115.0904388427734 C 50.19854736328125 115.0904388427734 50.77986145019531 115.0415649414063 51.36271667480469 114.9452056884766 L 54.85966491699219 114.3670349121094 C 55.48944091796875 114.2629013061523 56.12785339355469 114.2100982666016 56.75718688964844 114.2100982666016 C 60.16903686523438 114.2100982666016 63.37747192382813 115.7412872314453 65.55982971191406 118.4110488891602 C 67.73008728027344 121.066032409668 68.58265686035156 124.5208282470703 67.89894104003906 127.8896026611328 L 67.08172607421875 131.9161529541016 C 66.77874755859375 133.4090118408203 66.80029296875 134.8569030761719 67.14579010009766 136.2195739746094 C 67.46515655517578 137.4791564941406 68.05112457275391 138.6365509033203 68.88742065429688 139.6596374511719 C 70.71905517578125 141.9003448486328 73.54647064208984 143.2380981445313 76.45077514648438 143.2380981445313 C 79.32904052734375 143.2380981445313 81.92905426025391 141.9112701416016 83.77187347412109 139.5019989013672 L 88.43988800048828 133.3991088867188 C 90.61594390869141 130.5541534423828 93.91822052001953 128.9224853515625 97.49999237060547 128.9224853515625 C 101.0817565917969 128.9224853515625 104.3840408325195 130.5541534423828 106.5600891113281 133.3991088867188 L 111.2280883789063 139.5019989013672 C 113.0709075927734 141.9112701416016 115.6709060668945 143.2380981445313 118.5491943359375 143.2380981445313 C 121.4531936645508 143.2380981445313 124.2805252075195 141.9002532958984 126.1123046875 139.6593475341797 C 126.9486389160156 138.6362152099609 127.5346603393555 137.4788055419922 127.8540573120117 136.2192535400391 C 128.1995849609375 134.8566131591797 128.22119140625 133.4088439941406 127.9182434082031 131.9161529541016 L 127.1010437011719 127.8896179199219 C 126.4172592163086 124.5206146240234 127.2697601318359 121.0657348632813 129.4399261474609 118.4108505249023 C 131.6221618652344 115.7412338256836 134.8306732177734 114.2101135253906 138.2427978515625 114.2101135253906 C 138.8720703125 114.2101135253906 139.510498046875 114.2629165649414 140.1403045654297 114.3670501708984 L 143.6372680664063 114.9452209472656 C 144.22021484375 115.0415802001953 144.8015289306641 115.0904541015625 145.3650817871094 115.0904541015625 C 147.4971313476563 115.0904541015625 149.4731140136719 114.3912963867188 151.0794067382813 113.068603515625 C 152.5644378662109 111.8457489013672 153.6844482421875 110.1159362792969 154.233154296875 108.1977844238281 C 154.7838134765625 106.2727966308594 154.7441864013672 104.3040313720703 154.1186218261719 102.5043334960938 C 153.4370422363281 100.5435180664063 152.0633697509766 98.87564849853516 150.1461486816406 97.68105316162109 C 146.7808837890625 95.58418273925781 144.7717742919922 91.96510314941406 144.7717742919922 88.00003051757813 C 144.7717742919922 84.03493499755859 146.7808837890625 80.41583251953125 150.1461944580078 78.31893157958984 C 152.063720703125 77.12415313720703 153.4375915527344 75.45598602294922 154.1192321777344 73.49481964111328 C 154.7449035644531 71.69478607177734 154.7844543457031 69.72575378417969 154.2336273193359 67.80059814453125 C 153.6848297119141 65.88261413574219 152.5647583007813 64.15305328369141 151.0797576904297 62.93051910400391 C 149.4737243652344 61.60834503173828 147.4982299804688 60.90952301025391 145.3665161132813 60.90955352783203 C 145.3661346435547 60.90955352783203 145.3656158447266 60.90955352783203 145.3652191162109 60.90955352783203 C 144.8010559082031 60.90962982177734 144.2196960449219 60.95850372314453 143.6372985839844 61.05478668212891 L 140.1403045654297 61.63294982910156 C 139.5105438232422 61.73708343505859 138.8721313476563 61.78988647460938 138.2427520751953 61.78988647460938 C 134.8309326171875 61.78988647460938 131.6224975585938 60.25869750976563 129.4401550292969 57.58895111083984 C 127.269889831543 54.93396759033203 126.4173278808594 51.47914886474609 127.1010437011719 48.11038208007813 L 127.9182434082031 44.0838623046875 C 128.2212219238281 42.59100341796875 128.1996765136719 41.14311218261719 127.8541717529297 39.78045654296875 C 127.5348052978516 38.5208740234375 126.9488372802734 37.36346435546875 126.1125411987305 36.34037780761719 C 124.2809066772461 34.09967041015625 121.4534912109375 32.76191711425781 118.5491943359375 32.76191711425781 C 115.6709060668945 32.76191711425781 113.0709075927734 34.0887451171875 111.2280883789063 36.49800109863281 L 106.5601043701172 42.60090637207031 C 104.3840255737305 45.44584655761719 101.0817413330078 47.0775146484375 97.49999237060547 47.0775146484375 C 93.91822052001953 47.0775146484375 90.61594390869141 45.44584655761719 88.43988800048828 42.60087585449219 L 83.77188873291016 36.49797058105469 C 81.92902374267578 34.08865356445313 79.32902526855469 32.76181030273438 76.45082092285156 32.76190185546875 L 76.4508056640625 32.76190185546875 M 76.45078277587891 31.76188659667969 C 79.38491821289063 31.76181030273438 82.36516571044922 33.01286315917969 84.56617736816406 35.89042663574219 L 89.23417663574219 41.99334716796875 C 91.31678009033203 44.71612548828125 94.40839385986328 46.0775146484375 97.5 46.0775146484375 C 100.5916061401367 46.0775146484375 103.6832122802734 44.71612548828125 105.7658233642578 41.99334716796875 L 110.4338073730469 35.89047241210938 C 112.6343994140625 33.013427734375 115.615592956543 31.76191711425781 118.5491943359375 31.76191711425781 C 124.5594253540039 31.76191711425781 130.3742980957031 37.01014709472656 128.8982543945313 44.28276062011719 L 128.0810546875 48.30928039550781 C 126.7493896484375 54.87057495117188 131.8329162597656 60.78988647460938 138.2427673339844 60.78988647460938 C 138.8118438720703 60.78988647460938 139.3907318115234 60.74330902099609 139.9771728515625 60.64634704589844 L 143.4741821289063 60.06818389892578 C 144.1233215332031 59.96085357666016 144.7552337646484 59.90963745117188 145.3650970458984 59.90955352783203 C 155.3064117431641 59.908203125 159.7779235839844 73.49573516845703 150.6750183105469 79.16766357421875 L 150.6749877929688 79.16768646240234 C 144.1373596191406 83.24123382568359 144.1373596191406 92.75878143310547 150.6749877929688 96.83231353759766 L 150.6750183105469 96.83231353759766 C 159.7773284912109 102.5038986206055 155.3050384521484 116.090446472168 145.3650817871094 116.090446472168 C 144.7546234130859 116.090446472168 144.1239929199219 116.0392608642578 143.4741516113281 115.9318161010742 L 139.9771881103516 115.3536529541016 C 139.3911895751953 115.2567596435547 138.8114624023438 115.2101135253906 138.2427978515625 115.2101135253906 C 131.8323364257813 115.2101135253906 126.7492980957031 121.1289901733398 128.0810546875 127.6907196044922 L 128.8982543945313 131.7172546386719 C 130.3741760253906 138.9891967773438 124.5588455200195 144.2380981445313 118.549201965332 144.2380981445313 C 115.6150665283203 144.2380981445313 112.6348114013672 142.9871063232422 110.4338073730469 140.1095275878906 L 105.7658081054688 134.0066528320313 C 103.6832046508789 131.2838745117188 100.5916061401367 129.9224853515625 97.5 129.9224853515625 C 94.40839385986328 129.9224853515625 91.31678009033203 131.2838745117188 89.23417663574219 134.0066528320313 L 84.56615447998047 140.1095275878906 C 82.36556243896484 142.986572265625 79.38436889648438 144.2380981445313 76.45076751708984 144.2380981445313 C 70.44053649902344 144.2380981445313 64.62567138671875 138.9898681640625 66.10171508789063 131.7172546386719 L 66.91893005371094 127.6907043457031 C 68.25059509277344 121.1294250488281 63.16703796386719 115.2100982666016 56.75718688964844 115.2100982666016 C 56.18809509277344 115.2100982666016 55.60923767089844 115.2566757202148 55.02279663085938 115.3536376953125 L 51.52584838867188 115.9318008422852 C 50.87669372558594 116.0391235351563 50.24478149414063 116.0904312133789 49.63491821289063 116.0904312133789 C 39.69358825683594 116.0904312133789 35.22209167480469 102.5042343139648 44.32501220703125 96.83229827880859 L 44.32499694824219 96.83231353759766 C 50.86262512207031 92.75876617431641 50.86262512207031 83.24121856689453 44.32499694824219 79.16768646240234 C 35.22265625 73.49611663818359 39.6949462890625 59.90996551513672 49.63491821289063 59.90955352783203 C 50.24537658691406 59.90952301025391 50.87600708007813 59.96074676513672 51.52584838867188 60.06818389892578 L 55.02279663085938 60.64634704589844 C 55.60879516601563 60.74323272705078 56.18850708007813 60.78988647460938 56.75718688964844 60.78988647460938 C 63.16764831542969 60.78988647460938 68.25070190429688 54.87099456787109 66.91893005371094 48.30928039550781 L 66.10171508789063 44.28274536132813 C 64.62580871582031 37.01078796386719 70.44113922119141 31.76205444335938 76.45078277587891 31.76188659667969 Z" stroke="none" fill="#707070"/>
  </g>
  <g id="Gruppe_14" data-name="Gruppe 14" transform="translate(62.733 51.881)">
    <path id="Pfad_50" data-name="Pfad 50" d="M-970.339,48.133l-26.147,3.7-13.177-1.556-12.243-2.626-6.433-4.085,56.859-10.214Z" transform="translate(1035.23 0.472)" fill="#d68f15"/>
    <g id="Gruppe_13" data-name="Gruppe 13">
      <path id="Pfad_49" data-name="Pfad 49" d="M2464.289,1177.029l-3.338-3.139-1.386-4.835v-4.583l1.386-3.956,3.338-3.7,3.4-2.7,5.292-10.36,4.2-6.163,7.559-4.032,6.9-1.251h6.411l5.628.929,3.914,1.635,5.144,4.161,4.137,6.613,1.3,3.938,3.019,4.31,4.068,3.674,2.583,4.081,1.386,4.332v4.835l-1.386,4.772-2.583,3.014-2.834,2.7-1.234-14.753" transform="translate(-2457.252 -1132.306)" fill="#d68f15" stroke="#707070" stroke-width="1"/>
      <g id="Gruppe_11" data-name="Gruppe 11" transform="translate(21.307 7.128)">
        <g id="Ellipse_34" data-name="Ellipse 34" transform="translate(0)" fill="#fff" stroke="#707070" stroke-width="1">
          <ellipse cx="3.718" cy="8.801" rx="3.718" ry="8.801" stroke="none"/>
          <ellipse cx="3.718" cy="8.801" rx="3.218" ry="8.301" fill="none"/>
        </g>
        <g id="Ellipse_35" data-name="Ellipse 35" transform="translate(2.788 4.632)" stroke="#707070" stroke-width="1">
          <ellipse cx="1.394" cy="5.095" rx="1.394" ry="5.095" stroke="none"/>
          <ellipse cx="1.394" cy="5.095" rx="0.894" ry="4.595" fill="none"/>
        </g>
      </g>
      <g id="Gruppe_12" data-name="Gruppe 12" transform="translate(45.474 8.981)">
        <g id="Ellipse_36" data-name="Ellipse 36" fill="#fff" stroke="#707070" stroke-width="1">
          <ellipse cx="3.718" cy="8.801" rx="3.718" ry="8.801" stroke="none"/>
          <ellipse cx="3.718" cy="8.801" rx="3.218" ry="8.301" fill="none"/>
        </g>
        <g id="Ellipse_37" data-name="Ellipse 37" transform="translate(2.788 4.632)" fill="#060000" stroke="#707070" stroke-width="1">
          <ellipse cx="1.394" cy="5.095" rx="1.394" ry="5.095" stroke="none"/>
          <ellipse cx="1.394" cy="5.095" rx="0.894" ry="4.595" fill="none"/>
        </g>
      </g>
      <path id="Pfad_48" data-name="Pfad 48" d="M2500.337,1183.594l-.958,9.231-.639,3.82-4.365,4.563-8.73,2.228h-16.714l-4.791-2.228-5.323-2.122-4.471-7.215,1.171-4.669,9.475-8.276.639-4.563,1.383-3.183,6.069-5.2,7.132-5.305,5.43-1.592h4.471l13.733,8.276,2.661,2.016.745,4.032v2.122l-1.278,2.759-1.6,1.91-1.81,2.229v1.167l-1.49-2.228Z" transform="translate(-2454.347 -1135.8)" fill="#674b14" stroke="#707070" stroke-width="1"/>
      <g id="Ellipse_33" data-name="Ellipse 33" transform="translate(39.697 32.97)" fill="#fff" stroke="#707070" stroke-width="1">
        <ellipse cx="1.859" cy="1.853" rx="1.859" ry="1.853" stroke="none"/>
        <ellipse cx="1.859" cy="1.853" rx="1.359" ry="1.353" fill="none"/>
      </g>
      <g id="Ellipse_32" data-name="Ellipse 32" transform="translate(28.743 28.084)" fill="#fff" stroke="#707070" stroke-width="1">
        <ellipse cx="1.859" cy="1.853" rx="1.859" ry="1.853" stroke="none"/>
        <ellipse cx="1.859" cy="1.853" rx="1.359" ry="1.353" fill="none"/>
      </g>
    </g>
  </g>
</svg>
