<svg xmlns="http://www.w3.org/2000/svg" width="184.481" height="64.609" viewBox="0 0 184.481 64.609"><g transform="translate(1.664)" fill="#fff"><path d="M 91.55025482177734 64.10890960693359 C 85.51978302001953 64.10890960693359 79.16921234130859 63.53707885742188 72.13558959960938 62.36069488525391 C 65.91835021972656 61.32086181640625 59.9710693359375 59.95500564575195 54.2196159362793 58.63412475585938 C 44.39185333251953 56.37707901000977 35.10913848876953 54.24519729614258 26.43359184265137 54.24519729614258 C 16.05704498291016 54.24519729614258 7.741257667541504 57.32058334350586 0.3054079711437225 63.91732406616211 C -0.2177111804485321 63.26517868041992 -0.6065574884414673 62.13600158691406 -0.852837085723877 60.5506477355957 C -1.115337014198303 58.86091232299805 -1.212098956108093 56.6257438659668 -1.140408515930176 53.90726852416992 C -1.007908463478088 48.88126754760742 -0.3236941993236542 42.9801025390625 0.1758772134780884 38.67126846313477 C 0.5150676965713501 35.74586486816406 0.7829724550247192 33.43517303466797 0.7829724550247192 32.30445861816406 C 0.7829724550247192 28.09836387634277 3.13580584526062 23.99674415588379 7.776091575622559 20.11355400085449 C 10.0361156463623 18.22226905822754 12.83735370635986 16.39605331420898 16.10204315185547 14.68562507629395 C 19.34601974487305 12.98602962493896 23.07366371154785 11.38705348968506 27.18137741088867 9.933101654052734 C 35.53316116333008 6.976958751678467 45.26242446899414 4.655482292175293 56.09894943237305 3.033149003982544 C 67.32640075683594 1.352268099784851 79.25395202636719 0.5000062584877014 91.55025482177734 0.5000062584877014 C 103.846565246582 0.5000062584877014 115.7741165161133 1.352268099784851 127.0015640258789 3.033149003982544 C 137.8380889892578 4.655482292175293 147.5673522949219 6.976958751678467 155.9191436767578 9.933101654052734 C 160.02685546875 11.38705348968506 163.7545013427734 12.98602962493896 166.9984741210938 14.68562507629395 C 170.2631683349609 16.39605331420898 173.0644073486328 18.22226905822754 175.3244323730469 20.11355400085449 C 179.9647064208984 23.99674415588379 182.3175506591797 28.09836387634277 182.3175506591797 32.30445861816406 C 182.3175506591797 36.51055526733398 179.9647064208984 40.6121711730957 175.3244323730469 44.49536514282227 C 173.0644073486328 46.38665008544922 170.2631683349609 48.21286392211914 166.9984741210938 49.92329025268555 C 163.7545013427734 51.62288665771484 160.02685546875 53.22186279296875 155.9191436767578 54.67581558227539 C 147.5673522949219 57.6319580078125 137.8380889892578 59.95343399047852 127.0015640258789 61.57576751708984 C 115.7741165161133 63.25664901733398 103.846565246582 64.10890960693359 91.55025482177734 64.10890960693359 Z" stroke="none"/><path d="M 91.55025482177734 1.000007629394531 C 79.27864074707031 1.000007629394531 67.37602233886719 1.850410461425781 56.1729736328125 3.527626037597656 C 45.36799621582031 5.145244598388672 35.669921875 7.458934783935547 27.34820556640625 10.40445709228516 C 23.26280212402344 11.85050582885742 19.55711364746094 13.43991088867188 16.33406066894531 15.1285285949707 C 13.10099792480469 16.8223876953125 10.32963562011719 18.62862396240234 8.096969604492188 20.49700546264648 C 3.575546264648438 24.28074264526367 1.282974243164063 28.25333786010742 1.282974243164063 32.30445861816406 C 1.282974243164063 33.46407699584961 1.013595581054688 35.78741073608398 0.67254638671875 38.72883987426758 C 0.174041748046875 43.02833938598633 -0.5086669921875 48.91672134399414 -0.640594482421875 53.92043304443359 C -0.78875732421875 59.54052734375 -0.1822967529296875 62.04624557495117 0.4095611572265625 63.16132736206055 C 7.830841064453125 56.74195861816406 16.12957763671875 53.74519729614258 26.43359375 53.74519729614258 C 35.16583251953125 53.74519729614258 44.47537231445313 55.88324356079102 54.33152008056641 58.14681625366211 C 60.0758056640625 59.4660530090332 66.01564025878906 60.83019638061523 72.21809387207031 61.8675537109375 C 79.22411346435547 63.03931427001953 85.54773712158203 63.60890960693359 91.55025482177734 63.60890960693359 C 103.8218765258789 63.60890960693359 115.724494934082 62.75850677490234 126.9275436401367 61.08129119873047 C 137.7325134277344 59.46367263793945 147.4305877685547 57.14998245239258 155.7523040771484 54.20446014404297 C 159.8377075195313 52.7584114074707 163.5433959960938 51.16900634765625 166.7664489746094 49.48038482666016 C 169.9995269775391 47.78652954101563 172.7708740234375 45.98029327392578 175.0035400390625 44.11191177368164 C 179.5249786376953 40.32817077636719 181.8175506591797 36.35557556152344 181.8175506591797 32.30445861816406 C 181.8175506591797 28.25333786010742 179.5249786376953 24.28074264526367 175.0035400390625 20.49700546264648 C 172.7708740234375 18.62862396240234 169.9995269775391 16.8223876953125 166.7664489746094 15.1285285949707 C 163.5433959960938 13.43991088867188 159.8377075195313 11.85050582885742 155.7523040771484 10.40445709228516 C 147.4305877685547 7.458934783935547 137.7325134277344 5.145244598388672 126.9275436401367 3.527626037597656 C 115.724494934082 1.850410461425781 103.8218765258789 1.000007629394531 91.55025482177734 1.000007629394531 M 91.55025482177734 7.62939453125e-06 C 141.9557800292969 7.62939453125e-06 182.8175506591797 14.46319580078125 182.8175506591797 32.30445861816406 C 182.8175506591797 50.14572143554688 141.9557800292969 64.60890960693359 91.55025482177734 64.60890960693359 C 66.34903717041016 64.60890960693359 45.07400512695313 54.74520874023438 26.43357849121094 54.74520874023438 C 17.11166381835938 54.74520874023438 8.451202392578125 57.21023178100586 0.2829742431640625 64.60890960693359 C -4.096939086914063 60.94552993774414 0.2829742431640625 36.7647705078125 0.2829742431640625 32.30445861816406 C 0.2829742431640625 14.46319580078125 41.14472961425781 7.62939453125e-06 91.55025482177734 7.62939453125e-06 Z" stroke="none" fill="#707070"/></g><text transform="translate(41.481 20.267)" font-size="17" font-family="Gabriola"><tspan x="0" y="0">Hihi! G´Day !</tspan><tspan x="0" y="16">I am a Kookaburra and</tspan><tspan x="0" y="32" xml:space="preserve"> my name is Kookie.</tspan></text></svg>